<svg xmlns="http://www.w3.org/2000/svg" width="17.65" height="20.062" viewBox="0 0 17.65 20.062">
  <defs>
    <style>
      .cls-1 {
        fill: #2c71b8;
        fill-rule: evenodd;
      }
    </style>
  </defs>
  <path id="Фигура_3_копия_5" data-name="Фигура 3 копия 5" class="cls-1" d="M1520.21,54.174h10.46a2.215,2.215,0,0,0,2.15-2.273V47.154c0-.008-0.01-0.017-0.01-0.025a0.039,0.039,0,0,0-.01-0.029V47.076a0.027,0.027,0,0,1-.01-0.025,0.031,0.031,0,0,1-.01-0.029,0.024,0.024,0,0,1-.01-0.021l-0.02-.025a0.021,0.021,0,0,0-.01-0.02c0-.008-0.01-0.016-0.01-0.025s-0.01-.012-0.02-0.021-0.01-.012-0.01-0.021a0.038,0.038,0,0,1-.02-0.02,0.025,0.025,0,0,0-.02-0.017l-0.02-.021s-0.01-.012-0.01-0.017-0.02-.012-0.03-0.016-0.01-.008-0.02-0.013a0.069,0.069,0,0,1-.02-0.016l-0.05-.025-0.02-.013c-0.01,0-.02,0-0.03-0.008a0.021,0.021,0,0,0-.02-0.008,0.062,0.062,0,0,1-.02,0,0.074,0.074,0,0,0-.03,0c-0.01,0-.01,0-0.02,0l-13.26-1.931V42.823a0.111,0.111,0,0,0-.01-0.058V42.712a0.043,0.043,0,0,1-.01-0.033v-0.02l-0.02-.037V42.6a0.058,0.058,0,0,0-.02-0.033V42.555c-0.01-.008-0.01-0.017-0.02-0.025s-0.01-.012-0.01-0.021-0.01-.012-0.01-0.021-0.01-.017-0.02-0.025l-0.03-.037-0.02-.012a0.044,0.044,0,0,0-.02-0.025c-0.01,0-.01-0.008-0.02-0.012s-0.01-.012-0.02-0.02a0.193,0.193,0,0,1-.03-0.02c-0.01,0-.01,0-0.01-0.008l-0.06-.025-2.87-1.276a0.515,0.515,0,0,0-.69.3,0.559,0.559,0,0,0,.28.729l2.55,1.137V55.367a2.237,2.237,0,0,0,1.88,2.252,2.357,2.357,0,0,0-.31,1.153,2.133,2.133,0,1,0,4.26,0,2.372,2.372,0,0,0-.29-1.132h4.73a2.385,2.385,0,0,0-.29,1.132,2.133,2.133,0,1,0,2.13-2.244h-9.95a1.14,1.14,0,0,1-1.11-1.161V53.861a2.106,2.106,0,0,0,1.11.313h0Zm10.46-1.112" transform="translate(-1515.16 -40.969)"/>
</svg>
