<svg xmlns="http://www.w3.org/2000/svg" width="14" height="12" viewBox="0 0 14 12">
  <defs>
    <style>
      .cls-1 {
        fill: #fff;
        fill-rule: evenodd;
      }
    </style>
  </defs>
  <path id="Фигура_1_копия" data-name="Фигура 1 копия" class="cls-1" d="M1461.76,56.381a1.38,1.38,0,0,1-1.94.359l-2.48-1.851a1.416,1.416,0,0,1-.59-1.215,4.994,4.994,0,0,1-2.79,1.546,4.909,4.909,0,0,1-3.77-.831,5.124,5.124,0,0,1-2.1-3.314,5.246,5.246,0,0,1,.81-3.858,5,5,0,0,1,7.03-1.305,5.23,5.23,0,0,1,1.67,6.505,1.346,1.346,0,0,1,1.32.141l2.48,1.851A1.445,1.445,0,0,1,1461.76,56.381Zm-5.24-6.873a3.552,3.552,0,0,0-1.46-2.311,3.483,3.483,0,0,0-4.9.909,3.656,3.656,0,0,0,.89,5,3.479,3.479,0,0,0,4.9-.909A3.6,3.6,0,0,0,1456.52,49.507Z" transform="translate(-1448 -45)"/>
</svg>
